REM DIRINDEX 1\6,1\2\7,1\2\8,1\2\9,1\3\10,1\3\11,1\4\12,1\4\13,1\4\14,1\5\15,1\5\16,1\5\17
REM DIRNAME cjc041,folder01,folder02,folder03,folder04,folder05,folder06,folder07,folder08,folder09,folder10,folder11,folder12,folder13,folder14,folder15,folder16
TITLE ""
FILE "3Q_t2_0755-0770.mp3" MP3
  TRACK 01 AUDIO
    TITLE "7:cjc041_5683"
    INDEX 01 00:00:00
  TRACK 02 AUDIO
    TITLE "0:"
    INDEX 01 00:01:24
  TRACK 03 AUDIO
    TITLE "8:cjc041_5684"
    INDEX 01 00:02:04
  TRACK 04 AUDIO
    TITLE "0:"
    INDEX 01 00:03:15
  TRACK 05 AUDIO
    TITLE "9:cjc041_5685"
    INDEX 01 00:03:66
  TRACK 06 AUDIO
    TITLE "0:"
    INDEX 01 00:05:24
  TRACK 07 AUDIO
    TITLE "7:cjc041_5686"
    INDEX 01 00:07:09
  TRACK 08 AUDIO
    TITLE "0:"
    INDEX 01 00:08:40
  TRACK 09 AUDIO
    TITLE "8:cjc041_5687"
    INDEX 01 00:09:20
  TRACK 10 AUDIO
    TITLE "0:"
    INDEX 01 00:10:21
  TRACK 11 AUDIO
    TITLE "9:cjc041_5688"
    INDEX 01 00:11:03
  TRACK 12 AUDIO
    TITLE "0:"
    INDEX 01 00:12:30
  TRACK 13 AUDIO
    TITLE "7:cjc041_5689"
    INDEX 01 00:14:13
  TRACK 14 AUDIO
    TITLE "0:"
    INDEX 01 00:15:27
  TRACK 15 AUDIO
    TITLE "8:cjc041_5690"
    INDEX 01 00:16:08
  TRACK 16 AUDIO
    TITLE "0:"
    INDEX 01 00:17:00
  TRACK 17 AUDIO
    TITLE "9:cjc041_5691"
    INDEX 01 00:17:57
  TRACK 18 AUDIO
    TITLE "0:"
    INDEX 01 00:18:70
  TRACK 19 AUDIO
    TITLE "7:cjc041_5692"
    INDEX 01 00:20:51
  TRACK 20 AUDIO
    TITLE "0:"
    INDEX 01 00:21:57
  TRACK 21 AUDIO
    TITLE "8:cjc041_5693"
    INDEX 01 00:22:38
  TRACK 22 AUDIO
    TITLE "0:"
    INDEX 01 00:23:42
  TRACK 23 AUDIO
    TITLE "9:cjc041_5694"
    INDEX 01 00:24:16
  TRACK 24 AUDIO
    TITLE "0:"
    INDEX 01 00:25:21
  TRACK 25 AUDIO
    TITLE "7:cjc041_5695"
    INDEX 01 00:26:73
  TRACK 26 AUDIO
    TITLE "0:"
    INDEX 01 00:28:13
  TRACK 27 AUDIO
    TITLE "8:cjc041_5696"
    INDEX 01 00:28:72
  TRACK 28 AUDIO
    TITLE "0:"
    INDEX 01 00:30:03
  TRACK 29 AUDIO
    TITLE "9:cjc041_5697"
    INDEX 01 00:30:55
  TRACK 30 AUDIO
    TITLE "0:"
    INDEX 01 00:32:00
  TRACK 31 AUDIO
    TITLE "7:cjc041_5698"
    INDEX 01 00:33:54
  TRACK 32 AUDIO
    TITLE "0:"
    INDEX 01 00:34:73
  TRACK 33 AUDIO
    TITLE "8:cjc041_5699"
    INDEX 01 00:35:51
  TRACK 34 AUDIO
    TITLE "0:"
    INDEX 01 00:37:01
  TRACK 35 AUDIO
    TITLE "9:cjc041_5700"
    INDEX 01 00:37:54
  TRACK 36 AUDIO
    TITLE "0:"
    INDEX 01 00:38:69
  TRACK 37 AUDIO
    TITLE "7:cjc041_5701"
    INDEX 01 00:40:52
  TRACK 38 AUDIO
    TITLE "0:"
    INDEX 01 00:41:69
  TRACK 39 AUDIO
    TITLE "8:cjc041_5702"
    INDEX 01 00:42:49
  TRACK 40 AUDIO
    TITLE "0:"
    INDEX 01 00:45:30
  TRACK 41 AUDIO
    TITLE "9:cjc041_5703"
    INDEX 01 00:46:06
  TRACK 42 AUDIO
    TITLE "0:"
    INDEX 01 00:47:21
  TRACK 43 AUDIO
    TITLE "7:cjc041_5704"
    INDEX 01 00:49:08
  TRACK 44 AUDIO
    TITLE "0:"
    INDEX 01 00:50:41
  TRACK 45 AUDIO
    TITLE "8:cjc041_5705"
    INDEX 01 00:51:13
  TRACK 46 AUDIO
    TITLE "0:"
    INDEX 01 00:54:25
  TRACK 47 AUDIO
    TITLE "9:cjc041_5706"
    INDEX 01 00:55:01
  TRACK 48 AUDIO
    TITLE "0:"
    INDEX 01 00:56:37
  TRACK 49 AUDIO
    TITLE "7:cjc041_5707"
    INDEX 01 00:58:17
  TRACK 50 AUDIO
    TITLE "0:"
    INDEX 01 00:59:34
  TRACK 51 AUDIO
    TITLE "8:cjc041_5708"
    INDEX 01 01:00:12
  TRACK 52 AUDIO
    TITLE "0:"
    INDEX 01 01:01:15
  TRACK 53 AUDIO
    TITLE "9:cjc041_5709"
    INDEX 01 01:01:64
  TRACK 54 AUDIO
    TITLE "0:"
    INDEX 01 01:03:06
  TRACK 55 AUDIO
    TITLE "7:cjc041_5710"
    INDEX 01 01:04:64
  TRACK 56 AUDIO
    TITLE "0:"
    INDEX 01 01:06:06
  TRACK 57 AUDIO
    TITLE "8:cjc041_5711"
    INDEX 01 01:06:59
  TRACK 58 AUDIO
    TITLE "0:"
    INDEX 01 01:09:03
  TRACK 59 AUDIO
    TITLE "9:cjc041_5712"
    INDEX 01 01:09:56
  TRACK 60 AUDIO
    TITLE "0:"
    INDEX 01 01:10:73
  TRACK 61 AUDIO
    TITLE "7:cjc041_5713"
    INDEX 01 01:12:50
  TRACK 62 AUDIO
    TITLE "0:"
    INDEX 01 01:13:63
  TRACK 63 AUDIO
    TITLE "8:cjc041_5714"
    INDEX 01 01:14:47
  TRACK 64 AUDIO
    TITLE "0:"
    INDEX 01 01:15:60
  TRACK 65 AUDIO
    TITLE "9:cjc041_5715"
    INDEX 01 01:16:38
  TRACK 66 AUDIO
    TITLE "0:"
    INDEX 01 01:17:55
  TRACK 67 AUDIO
    TITLE "7:cjc041_5716"
    INDEX 01 01:19:34
  TRACK 68 AUDIO
    TITLE "0:"
    INDEX 01 01:20:51
  TRACK 69 AUDIO
    TITLE "8:cjc041_5717"
    INDEX 01 01:21:29
  TRACK 70 AUDIO
    TITLE "0:"
    INDEX 01 01:22:37
  TRACK 71 AUDIO
    TITLE "9:cjc041_5718"
    INDEX 01 01:23:11
  TRACK 72 AUDIO
    TITLE "0:"
    INDEX 01 01:24:30
  TRACK 73 AUDIO
    TITLE "7:cjc041_5719"
    INDEX 01 01:26:13
  TRACK 74 AUDIO
    TITLE "0:"
    INDEX 01 01:27:48
  TRACK 75 AUDIO
    TITLE "8:cjc041_5720"
    INDEX 01 01:28:22
  TRACK 76 AUDIO
    TITLE "0:"
    INDEX 01 01:30:52
  TRACK 77 AUDIO
    TITLE "9:cjc041_5721"
    INDEX 01 01:31:30
  TRACK 78 AUDIO
    TITLE "0:"
    INDEX 01 01:32:62
  TRACK 79 AUDIO
    TITLE "7:cjc041_5722"
    INDEX 01 01:34:46
  TRACK 80 AUDIO
    TITLE "0:"
    INDEX 01 01:35:57
  TRACK 81 AUDIO
    TITLE "8:cjc041_5723"
    INDEX 01 01:36:39
  TRACK 82 AUDIO
    TITLE "0:"
    INDEX 01 01:37:54
  TRACK 83 AUDIO
    TITLE "9:cjc041_5724"
    INDEX 01 01:38:34
  TRACK 84 AUDIO
    TITLE "0:"
    INDEX 01 01:39:49
  TRACK 85 AUDIO
    TITLE "7:cjc041_5725"
    INDEX 01 01:41:34
  TRACK 86 AUDIO
    TITLE "0:"
    INDEX 01 01:42:33
  TRACK 87 AUDIO
    TITLE "8:cjc041_5726"
    INDEX 01 01:43:13
  TRACK 88 AUDIO
    TITLE "0:"
    INDEX 01 01:45:18
  TRACK 89 AUDIO
    TITLE "9:cjc041_5727"
    INDEX 01 01:45:67
  TRACK 90 AUDIO
    TITLE "0:"
    INDEX 01 01:46:70
  TRACK 91 AUDIO
    TITLE "7:cjc041_5728"
    INDEX 01 01:48:52
  TRACK 92 AUDIO
    TITLE "0:"
    INDEX 01 01:49:55
  TRACK 93 AUDIO
    TITLE "8:cjc041_5729"
    INDEX 01 01:50:33
  TRACK 94 AUDIO
    TITLE "0:"
    INDEX 01 01:51:40
  TRACK 95 AUDIO
    TITLE "9:cjc041_5730"
    INDEX 01 01:52:22
  TRACK 96 AUDIO
    TITLE "0:"
    INDEX 01 01:53:25
